<!--?xml version="1.0" encoding="utf-8"?-->
<!-- Generator: Adobe Illustrator 22.1.0, SVG Export Plug-In . SVG Version: 6.00 Build 0)  -->
<svg version="1.1" id="Layer_1" xmlns="http://www.w3.org/2000/svg" xmlns:xlink="http://www.w3.org/1999/xlink" x="0px" y="0px" viewBox="0 0 1500 900" style="" xml:space="preserve">
<style type="text/css">
	.st0{fill:none;stroke:#FFFFFF;stroke-width:3;stroke-linecap:round;stroke-linejoin:round;stroke-miterlimit:10;}
</style>
<path class="st0 TqLJqIhm_0" d="M-58.5,16.3c0,0,303.1-13,300.8,288.1c-1.6,207.5,78.3,394.5,234.1,342.6c146.7-48.9,144.6-25.6,156.4,78.2
	c16.3,143.4,270.5,172.7,383.7,48.9c99.2-108.5,180-106.4,318.8-41.9s171.6-201.7,171.6-201.7"></path>
<path class="st0 TqLJqIhm_1" d="M372.5,571.6A61.6,38.7 0,1,1 495.70000000000005,571.6A61.6,38.7 0,1,1 372.5,571.6"></path>
<path class="st0 TqLJqIhm_2" d="M766.5,721.9c0,0,127.1,52.1,215.1-39.1s166.2-146.7,296.6-58.7s198.8-9.8,254.2-127.1"></path>
<style data-made-with="vivus-instant">.TqLJqIhm_0{stroke-dasharray:2325 2327;stroke-dashoffset:2326;animation:TqLJqIhm_draw_0 8200ms linear 0ms infinite,TqLJqIhm_fade 8200ms linear 0ms infinite;}.TqLJqIhm_1{stroke-dasharray:320 322;stroke-dashoffset:321;animation:TqLJqIhm_draw_1 8200ms linear 0ms infinite,TqLJqIhm_fade 8200ms linear 0ms infinite;}.TqLJqIhm_2{stroke-dasharray:913 915;stroke-dashoffset:914;animation:TqLJqIhm_draw_2 8200ms linear 0ms infinite,TqLJqIhm_fade 8200ms linear 0ms infinite;}@keyframes TqLJqIhm_draw{100%{stroke-dashoffset:0;}}@keyframes TqLJqIhm_fade{0%{stroke-opacity:1;}95.1219512195122%{stroke-opacity:1;}100%{stroke-opacity:0;}}@keyframes TqLJqIhm_draw_0{9.75609756097561%{stroke-dashoffset: 2326}70.73170731707317%{ stroke-dashoffset: 0;}100%{ stroke-dashoffset: 0;}}@keyframes TqLJqIhm_draw_1{9.75609756097561%{stroke-dashoffset: 321}70.73170731707317%{ stroke-dashoffset: 0;}100%{ stroke-dashoffset: 0;}}@keyframes TqLJqIhm_draw_2{9.75609756097561%{stroke-dashoffset: 914}70.73170731707317%{ stroke-dashoffset: 0;}100%{ stroke-dashoffset: 0;}}</style></svg>
